<svg width="600" height="200" viewBox="0 0 600 200" fill="none" xmlns="http://www.w3.org/2000/svg">
  <g transform="translate(250, 20)">
    <path d="M50 5C27.9 5 10 22.9 10 45C10 75 50 115 50 115C50 115 90 75 90 45C90 22.9 72.1 5 50 5Z" fill="#111827" />
    <g transform="translate(28, 32) scale(0.9)">
      <path d="M12 25V42H16V25C20 25 22 22 22 18V5H19V18H17V5H14V18H12V5H9V18H7V5H4V18C4 22 6 25 10 25H12Z" fill="white" />
    </g>
    <g transform="translate(56, 32) scale(0.9)">
      <ellipse cx="8" cy="14" rx="8" ry="11" fill="white" />
      <rect x="6" y="24" width="4" height="18" rx="2" fill="white" />
    </g>
  </g>
  <text x="300" y="175" text-anchor="middle" fill="#111827" style="font-family: 'Inter', sans-serif; font-weight: 900; font-size: 52px; font-style: italic; letter-spacing: -0.02em;">HELLO FOODIE!</text>
</svg>
