<svg width="400" height="120" viewBox="0 0 400 120" fill="none" xmlns="http://www.w3.org/2000/svg">
  <defs>
    <mask id="logoMask">
      <rect width="512" height="512" fill="white" />
      <path d="M 129 120 Q 129 110 136 110 Q 143 110 143 120 L 143 180 L 149 180 L 149 120 Q 149 110 156 110 Q 163 110 163 120 L 163 180 L 169 180 L 169 120 Q 169 110 176 110 Q 183 110 183 120 L 183 180 L 189 180 L 189 120 Q 189 110 196 110 Q 203 110 203 120 L 203 200 C 203 230 176 250 176 260 L 176 500 L 156 500 L 156 260 C 156 250 129 230 129 200 Z" fill="black" />
      <path d="M 346 110 C 316 110 300 135 300 170 C 300 210 330 240 336 250 L 336 500 L 356 500 L 356 250 C 362 240 392 210 392 170 C 392 135 376 110 346 110 Z" fill="black" />
    </mask>
  </defs>
  
  <!-- Icon -->
  <g transform="translate(-6.2, 6) scale(0.2)">
    <path d="M 256 460 C 380 340 436 280 436 200 A 180 180 0 0 0 76 200 C 76 280 132 340 256 460 Z" fill="#F43F5E" mask="url(#logoMask)" />
  </g>

  <!-- Text -->
  <text x="100" y="75" fill="#F43F5E" style="font-family: 'Inter', sans-serif; font-weight: 900; font-size: 48px; letter-spacing: -0.05em;">Hello Foodie!</text>
</svg>
